# xmcd
#
# Track frame offsets:
#	150
#	19381
#	35244
#	52125
#	73980
#	93004
#	109273
#	124040
#	136022
#
# Disc length: 2105 seconds
#
# Revision: 785712905
# Processed by: cddbd v1.5.2PL0 Copyright (c) Steve Scherf et al.
# Submitted via: EZCDAudioConverter 8.0.2.1
#
DISCID=82083709
DTITLE=Đinh Tiến Đạt - Giao Thông
DYEAR=2006
DGENRE=Miscellaneous
TTITLE0=Đinh Tiến Đạt - Chí Phèo
TTITLE1=Đinh Tiến Đạt, Anh bằng - Không nhà
TTITLE2=Đinh Tiến Đạt - Đi học
TTITLE3=Đinh Tiến Đạt, 5 Dòng Kẻ - Trống cơm
TTITLE4=Đinh Tiến Đạt - Vui cùng Tiến Đạt
TTITLE5=Đinh Tiến Đạt - Giao Thông
TTITLE6=Đinh Tiến Đạt - Ôi người đẹp
TTITLE7=Đinh Tiến Đạt, The Bells - Khhong nhà (Ver.2)
TTITLE8=Đinh Tiến Đạt - Trống cơm
EXTD=
EXTT0=
EXTT1=
EXTT2=
EXTT3=
EXTT4=
EXTT5=
EXTT6=
EXTT7=
EXTT8=
PLAYORDER=
